<?xml version="1.0" encoding="utf-8"?>
<!-- Generator: Adobe Illustrator 15.0.0, SVG Export Plug-In . SVG Version: 6.00 Build 0)  -->
<!DOCTYPE svg PUBLIC "-//W3C//DTD SVG 1.1//EN" "http://www.w3.org/Graphics/SVG/1.1/DTD/svg11.dtd">
<svg version="1.1" id="Layer_1" xmlns="http://www.w3.org/2000/svg" xmlns:xlink="http://www.w3.org/1999/xlink" x="0px" y="0px"
	 width="28px" height="40px" viewBox="16.114 20.909 28 40" enable-background="new 16.114 20.909 28 40" xml:space="preserve">
<g>
	<g>
		<path fill="#231F20" d="M44.005,24.064c-0.426-1.846-2.286-2.203-3.856-1.841c-1.396,0.323-2.502,1.356-3.236,2.604
			c-2.021-1.486-4.67-2.285-7.723-2.285c-6.195,0-11.609,3.733-11.609,10.298c0,4.132,1.825,6.824,4.527,8.444
			c-3.375,0.461-5.923,2.249-5.923,5.972c0,2.933,2.75,4.766,5.224,5.5l-0.091,0.091c-1.833-0.046-5.226,0.276-5.226,2.842
			c0,1.742,2.384,4.721,12.145,4.721c10.541,0,13.658-4.492,13.658-8.707c0-5.088-3.804-7.242-8.296-7.242h-7.561
			c-0.733,0-4.399-0.091-4.399-1.421c0-0.838,0.762-1.134,1.493-1.212c0.145,0.069,0.289,0.139,0.439,0.201
			c2.216,0.944,4.348,1.108,6.728,1.108c4.43,0,7.876-1.641,10.338-5.21l-0.779-0.533c-1.724,2.38-4.472,4.308-7.508,4.308
			c-3.814,0-4.43-2.585-4.43-5.867V34.11h13.209c0.042-3.701-1.219-6.631-3.401-8.62c0.337-0.624,0.808-1.158,1.351-1.283
			c0.156-0.037,0.264,0.063,0.337,0.211c0.02,0.078-0.053,0.839,0.037,1.232c0.244,1.059,1.516,1.552,2.497,1.326
			C43.48,26.624,44.386,25.712,44.005,24.064z M22.647,53.167c1.924,0.55,5.04,0.688,9.164,0.688c6.188,0,6.372,0.551,6.372,1.834
			c0,3.069-8.342,3.392-10.497,3.392c-2.244,0-6.462-0.368-6.462-3.438C21.225,55.001,22.005,52.984,22.647,53.167z M31.447,27.465
			v5.661h-3.528v-5.661c0-1.271-0.204-3.938,1.682-3.938C31.775,23.526,31.447,26.029,31.447,27.465z"/>
	</g>
</g>
</svg>
